Coordinates
version=1
nRows=18
nColumns=22
inDegrees=yes

Units are S.I. units (second, meters, Newtons, ...)
If the header above contains a line with 'inDegrees', this indicates whether rotational values are in degrees (yes) or radians (no).

endheader
time	pelvis_tilt	pelvis_list	pelvis_rotation	pelvis_tx	pelvis_ty	pelvis_tz	hip_flexion_r	hip_adduction_r	hip_rotation_r	knee_angle_r	ankle_angle_r	subtalar_angle_r	hip_flexion_l	hip_adduction_l	hip_rotation_l	knee_angle_l	ankle_angle_l	subtalar_angle_l	lumbar_extension	lumbar_bending	lumbar_rotation
      1.29000000	    -10.71005375	      1.25075846	     -4.63192415	     -0.89875786	      0.95645036	     -0.20241791	     43.48440766	     -2.59463276	     -9.80782086	    -37.39676033	     15.03072169	     -4.42066138	      9.31416685	      4.08510580	     -6.19935291	    -19.00620181	     28.29107917	     -2.33538717	     -4.14359291	     -1.04556543	      1.36106066
      1.30000000	    -10.58089669	      1.34327796	     -4.73556033	     -0.89345125	      0.95547046	     -0.20145755	     43.70706099	     -2.67579916	    -10.52815268	    -36.62669085	     14.88130619	     -4.21589176	      8.82285259	      4.15926648	     -6.30851803	    -18.99591964	     28.58886932	     -2.29586737	     -4.34509592	     -1.08681295	      1.33467770
      1.31000000	    -10.43253170	      1.42185836	     -4.83159972	     -0.88796212	      0.95447298	     -0.20046015	     43.88145499	     -2.75321424	    -11.29435987	    -35.87235887	     14.69933492	     -4.05477883	      8.30676494	      4.22025205	     -6.39997996	    -19.00347702	     28.88985204	     -2.24331358	     -4.56294232	     -1.10873529	      1.32006483
      1.32000000	    -10.30405537	      1.48472968	     -4.90735505	     -0.88229305	      0.95341107	     -0.19942278	     44.03598934	     -2.82173537	    -12.09855191	    -35.11837861	     14.44222748	     -3.95490356	      7.80601239	      4.26406870	     -6.45741363	    -19.02414406	     29.19956733	     -2.18680020	     -4.74625975	     -1.10469474	      1.26123452
      1.33000000	    -10.17908614	      1.54311432	     -4.97346565	     -0.87645940	      0.95230218	     -0.19833468	     44.16168377	     -2.88894204	    -12.93554880	    -34.37876437	     14.13062514	     -3.89166176	      7.30585389	      4.29977876	     -6.50621459	    -19.06138368	     29.50435544	     -2.11364777	     -4.91743176	     -1.09155301	      1.20369266
      1.34000000	    -10.06421253	      1.59878359	     -5.02590524	     -0.87047009	      0.95114555	     -0.19718131	     44.25964942	     -2.95182410	    -13.79139449	    -33.65090518	     13.76743182	     -3.84986527	      6.81450889	      4.32736533	     -6.54444210	    -19.11591948	     29.80224773	     -2.01993820	     -5.07186429	     -1.07537643	      1.13451092
      1.35000000	     -9.97121762	      1.66337406	     -5.06703435	     -0.86431659	      0.94992211	     -0.19596447	     44.34374711	     -3.01179823	    -14.62845848	    -32.94349803	     13.36968562	     -3.81111043	      6.34334828	      4.35812443	     -6.57775493	    -19.18394030	     30.08368429	     -1.91428816	     -5.18802694	     -1.06358521	      1.04940795
      1.36000000	     -9.88310023	      1.72173669	     -5.09294484	     -0.85799701	      0.94866959	     -0.19465701	     44.38768646	     -3.05297813	    -15.42834409	    -32.25791461	     12.98598507	     -3.77853736	      5.87526550	      4.37263957	     -6.60479839	    -19.27185784	     30.34529943	     -1.77982496	     -5.29309456	     -1.04813774	      0.95329282
      1.37000000	     -9.80404526	      1.78287019	     -5.10736762	     -0.85149323	      0.94737487	     -0.19326500	     44.40098447	     -3.07358130	    -16.13449587	    -31.61619723	     12.63196218	     -3.75341445	      5.41989400	      4.38149551	     -6.62389979	    -19.39088383	     30.58590663	     -1.62427008	     -5.37353282	     -1.03470505	      0.84802416
      1.38000000	     -9.73586221	      1.83986324	     -5.10756816	     -0.84482733	      0.94603939	     -0.19178538	     44.38551516	     -3.06302606	    -16.71091726	    -31.02966901	     12.33281598	     -3.75397185	      4.98334176	      4.37630082	     -6.62890581	    -19.54676602	     30.80575282	     -1.45053531	     -5.43520510	     -1.01440211	      0.72662263
      1.39000000	     -9.68851193	      1.90488727	     -5.09100191	     -0.83802941	      0.94463444	     -0.19022616	     44.36574526	     -3.02898127	    -17.10567631	    -30.53138473	     12.05991535	     -3.78177440	      4.59862927	      4.37203475	     -6.58593926	    -19.78078785	     31.00784906	     -1.30324126	     -5.46538318	     -1.00328902	      0.61440913
      1.40000000	     -9.61714901	      1.92072946	     -5.06573319	     -0.83094818	      0.94326753	     -0.18853448	     44.26281069	     -2.92090360	    -17.35271631	    -30.11571801	     11.88307384	     -3.96525488	      4.17845666	      4.30104715	     -6.56618912	    -20.04020788	     31.18783205	     -1.05246340	     -5.50266964	     -0.93648049	      0.45364006
      1.41000000	     -9.57232816	      1.93372906	     -5.02595628	     -0.82375111	      0.94183193	     -0.18676733	     44.17465390	     -2.78189628	    -17.39578198	    -29.83868973	     11.64712377	     -4.24415140	      3.83043476	      4.22089664	     -6.48137015	    -20.40587236	     31.35264375	     -0.83774077	     -5.50494503	     -0.86315945	      0.31589422
      1.42000000	     -9.53762000	      1.92508845	     -4.98311559	     -0.81636017	      0.94037897	     -0.18490445	     44.08246680	     -2.59783637	    -17.26528622	    -29.72107117	     11.32912757	     -4.69297363	      3.51176190	      4.11039543	     -6.36930993	    -20.83838476	     31.49643520	     -0.61262431	     -5.48056153	     -0.76230595	      0.18289376
      1.43000000	     -9.51009012	      1.90185139	     -4.94128986	     -0.80877210	      0.93892937	     -0.18295144	     43.99841568	     -2.38203363	    -16.98178366	    -29.79174262	     10.88255603	     -5.35222312	      3.21421226	      3.98085505	     -6.22400720	    -21.32557622	     31.61412253	     -0.37204233	     -5.43221363	     -0.64037156	      0.04095645
      1.44000000	     -9.48196739	      1.85576682	     -4.90112802	     -0.80100182	      0.93752549	     -0.18094304	     43.92700070	     -2.14427184	    -16.61569960	    -30.06759810	     10.26278155	     -6.20399608	      2.93498777	      3.82791930	     -6.03428728	    -21.87794473	     31.68523633	     -0.12493353	     -5.37247892	     -0.48427703	     -0.06963713
      1.45000000	     -9.45958323	      1.76719429	     -4.87684712	     -0.79302868	      0.93619833	     -0.17885029	     43.86899736	     -1.85843797	    -16.19552360	    -30.52205782	      9.49392531	     -7.25624697	      2.67526753	      3.62290311	     -5.85058461	    -22.48895144	     31.69424202	      0.13439856	     -5.29056487	     -0.26886132	     -0.16293328
      1.46000000	     -9.40794125	      1.67906378	     -4.87444532	     -0.78484691	      0.93501910	     -0.17670871	     43.81988390	     -1.58709088	    -15.77837867	    -31.18447331	      8.63892287	     -8.53401898	      2.38035203	      3.42955770	     -5.62387515	    -23.11575634	     31.62605193	      0.44005986	     -5.22727417	     -0.04911199	     -0.21361131
